<?xml version="1.0" standalone="no"?>
<!DOCTYPE svg PUBLIC "-//W3C//DTD SVG 20010904//EN"
 "http://www.w3.org/TR/2001/REC-SVG-20010904/DTD/svg10.dtd">
<svg version="1.0" xmlns="http://www.w3.org/2000/svg"
 width="104.000000pt" height="104.000000pt" viewBox="0 0 104.000000 104.000000"
 preserveAspectRatio="xMidYMid meet">

<g transform="translate(0.000000,104.000000) scale(0.100000,-0.100000)"
fill="#000000" stroke="none">
<path d="M529 844 c90 -47 182 -184 199 -294 l8 -55 17 54 c19 62 22 163 6
209 -15 44 -110 90 -199 98 l-65 5 34 -17z"/>
<path d="M352 814 c-45 -23 -120 -91 -137 -125 l-15 -28 63 29 c102 48 214 50
332 5 40 -16 -60 76 -110 100 -70 34 -95 37 -133 19z"/>
<path d="M827 625 c-9 -97 -60 -198 -130 -259 -28 -26 -46 -46 -40 -46 40 0
149 47 188 82 l44 39 -4 76 c-3 50 -13 93 -28 127 l-23 51 -7 -70z"/>
<path d="M323 656 c-44 -14 -90 -43 -135 -84 -25 -23 -27 -30 -23 -91 2 -37
14 -93 27 -126 l22 -60 7 74 c9 97 53 185 127 252 57 52 52 59 -25 35z"/>
<path d="M291 429 c-15 -43 -14 -178 2 -209 18 -37 113 -81 189 -87 l63 -5
-45 29 c-90 59 -180 188 -180 261 0 9 -4 23 -9 30 -6 10 -11 5 -20 -19z"/>
<path d="M830 320 c-14 -11 -54 -29 -89 -41 -82 -28 -201 -24 -275 9 l-49 22
19 -22 c46 -53 111 -97 181 -122 38 -13 44 -13 82 6 46 22 116 90 144 137 21
36 20 37 -13 11z"/>
</g>
</svg>
